<?xml version="1.0" encoding="UTF-8"?> <svg xmlns="http://www.w3.org/2000/svg" height="512pt" viewBox="0 -60 512.00025 512" width="512pt"><g id="surface1"><path d="M 482.324219 172.65625 L 266.808594 388.171875 C 263.824219 391.15625 259.910156 392.644531 256 392.644531 C 252.089844 392.644531 248.175781 391.15625 245.191406 388.171875 L 29.675781 172.65625 C -10.074219 132.90625 -9.890625 68.332031 30.222656 28.808594 C 70.023438 -10.410156 134.371094 -9.257812 173.886719 30.257812 L 256 112.371094 L 338.113281 30.257812 C 377.628906 -9.257812 441.976562 -10.410156 481.777344 28.808594 C 521.890625 68.332031 522.074219 132.90625 482.324219 172.65625 Z M 482.324219 172.65625 " style=" stroke:none;fill-rule:nonzero;fill:rgb(49.411765%,84.705882%,96.470588%);fill-opacity:1;"></path><path d="M 430.191406 224.789062 L 266.808594 388.171875 C 263.824219 391.15625 259.910156 392.644531 256 392.644531 C 252.089844 392.644531 248.175781 391.15625 245.191406 388.171875 L 81.808594 224.789062 Z M 430.191406 224.789062 " style=" stroke:none;fill-rule:nonzero;fill:rgb(18.431373%,75.294118%,94.117647%);fill-opacity:1;"></path><path d="M 332.367188 220.835938 C 332.367188 243.410156 314.074219 261.707031 291.5 261.707031 L 271.28125 261.707031 C 262.84375 261.707031 256 268.550781 256 276.984375 L 256 392.644531 C 252.089844 392.644531 248.175781 391.15625 245.191406 388.171875 L 29.675781 172.65625 C -10.074219 132.90625 -9.890625 68.332031 30.222656 28.808594 C 70.023438 -10.410156 134.371094 -9.257812 173.886719 30.257812 L 256 112.371094 L 256 164.679688 C 256 173.125 262.84375 179.957031 271.28125 179.957031 L 291.5 179.957031 C 302.789062 179.957031 313.003906 184.53125 320.398438 191.925781 C 327.796875 199.332031 332.367188 209.550781 332.367188 220.835938 Z M 332.367188 220.835938 " style=" stroke:none;fill-rule:nonzero;fill:rgb(100%,92.156863%,60%);fill-opacity:1;"></path><path d="M 332.175781 224.789062 C 330.1875 245.507812 312.738281 261.707031 291.5 261.707031 L 271.28125 261.707031 C 262.84375 261.707031 256 268.550781 256 276.984375 L 256 392.644531 C 252.089844 392.644531 248.175781 391.15625 245.191406 388.171875 L 81.808594 224.789062 Z M 332.175781 224.789062 " style=" stroke:none;fill-rule:nonzero;fill:rgb(100%,89.411765%,46.666667%);fill-opacity:1;"></path></g></svg> 