<?xml version="1.0" encoding="UTF-8"?> <svg xmlns="http://www.w3.org/2000/svg" height="512pt" viewBox="0 0 512 512" width="512pt"><path d="m280.101562 512h176.730469c30.484375 0 55.167969-24.65625 55.167969-55.167969v-128.53125c0-30.476562-24.652344-55.167969-55.167969-55.167969h-265.097656c-13.335937 0-20.039063 16.175782-10.605469 25.605469l43.804688 43.808594v114.285156c0 30.421875 24.746094 55.167969 55.167968 55.167969zm0 0" fill="#edf6ff"></path><path d="m456.832031 273.132812h-88.363281v238.867188h88.363281c30.484375 0 55.167969-24.65625 55.167969-55.167969v-128.53125c0-30.476562-24.652344-55.167969-55.167969-55.167969zm0 0" fill="#d5e9ff"></path><path d="m231.898438 238.867188h-176.730469c-30.484375 0-55.167969-24.65625-55.167969-55.167969v-128.53125c0-30.480469 24.652344-55.167969 55.167969-55.167969h265.097656c13.335937 0 20.039063 16.175781 10.605469 25.605469l-43.804688 43.808593v114.285157c0 30.417969-24.746094 55.167969-55.167968 55.167969zm0 0" fill="#edf6ff"></path><path d="m320.265625 0h-176.734375v238.867188h88.367188c30.421874 0 55.167968-24.75 55.167968-55.167969v-114.285157l43.804688-43.808593c9.433594-9.429688 2.730468-25.605469-10.605469-25.605469zm0 0" fill="#d5e9ff"></path><path d="m95.332031 401.667969c-52.648437 0-95.332031 42.679687-95.332031 95.332031 0 8.285156 6.714844 15 15 15h160.667969c8.28125 0 15-6.714844 15-15 0-52.652344-42.683594-95.332031-95.335938-95.332031zm0 0" fill="#00eccf"></path><path d="m95.332031 401.667969c-35.4375 0-64.265625-28.832031-64.265625-64.269531 0-35.433594 28.828125-64.265626 64.265625-64.265626s64.269531 28.832032 64.269531 64.265626c0 35.4375-28.832031 64.269531-64.269531 64.269531zm0 0" fill="#ffece3"></path><path d="m95.332031 273.132812v128.53125c35.4375 0 64.265625-28.828124 64.265625-64.265624s-28.828125-64.265626-64.265625-64.265626zm0 0" fill="#ffdccd"></path><path d="m175.667969 512c8.28125 0 15-6.714844 15-15 0-52.652344-42.683594-95.332031-95.332031-95.332031v110.332031zm0 0" fill="#00cab1"></path><path d="m143.53125 174.601562c-23.5625 0-46.070312-11.253906-60.199219-30.105468-4.96875-6.628906-3.625-16.027344 3.003907-21 6.628906-4.96875 16.027343-3.625 21 3.003906 8.492187 11.332031 22.027343 18.097656 36.195312 18.097656 14.171875 0 27.703125-6.761718 36.199219-18.09375 4.96875-6.628906 14.371093-7.976562 21-3.007812 6.628906 4.96875 7.972656 14.371094 3.003906 21-14.128906 18.851562-36.632813 30.105468-60.203125 30.105468zm0 0" fill="#515cdf"></path><path d="m126.398438 87.300781c0 8.285157-6.714844 15-15 15-8.28125 0-15-6.714843-15-15 0-8.285156 6.71875-15 15-15 8.285156 0 15 6.714844 15 15zm0 0" fill="#515cdf" fill-rule="evenodd"></path><path d="m190.667969 87.300781c0 8.285157-6.714844 15-15 15-8.285157 0-15-6.714843-15-15 0-8.285156 6.714843-15 15-15 8.285156 0 15 6.714844 15 15zm0 0" fill="#0051bd" fill-rule="evenodd"></path><path d="m416.667969 128.53125c-52.652344 0-95.332031 42.683594-95.332031 95.335938 0 8.28125 6.714843 15 15 15h160.664062c8.285156 0 15-6.71875 15-15 0-52.652344-42.683594-95.335938-95.332031-95.335938zm0 0" fill="#0051bd"></path><path d="m416.667969 128.53125c-35.4375 0-64.269531-28.828125-64.269531-64.265625s28.832031-64.265625 64.269531-64.265625 64.265625 28.828125 64.265625 64.265625-28.828125 64.265625-64.265625 64.265625zm0 0" fill="#e8afa3"></path><path d="m416.667969 0v128.53125c35.4375 0 64.265625-28.828125 64.265625-64.265625s-28.828125-64.265625-64.265625-64.265625zm0 0" fill="#d19188"></path><path d="m497 238.867188c8.285156 0 15-6.714844 15-15 0-52.652344-42.683594-95.332032-95.332031-95.332032v110.332032zm0 0" fill="#00347b"></path><path d="m203.734375 144.496094c4.96875-6.628906 3.625-16.027344-3.003906-21-6.628907-4.96875-16.03125-3.621094-21 3.007812-8.496094 11.332032-22.027344 18.09375-36.199219 18.09375v30c23.570312.003906 46.074219-11.25 60.203125-30.101562zm0 0" fill="#0051bd"></path><path d="m368.46875 447.734375c23.5625 0 46.070312-11.253906 60.199219-30.105469 4.96875-6.625 3.625-16.027344-3.003907-21-6.628906-4.96875-16.027343-3.621094-21 3.003906-8.492187 11.332032-22.027343 18.097657-36.195312 18.097657-14.171875 0-27.703125-6.761719-36.199219-18.09375-4.96875-6.628907-14.371093-7.976563-21-3.007813-6.628906 4.96875-7.972656 14.371094-3.003906 21 14.128906 18.851563 36.632813 30.105469 60.203125 30.105469zm0 0" fill="#515cdf"></path><path d="m415.601562 360.433594c0 8.285156-6.71875 15-15 15-8.285156 0-15-6.714844-15-15s6.714844-15 15-15c8.28125 0 15 6.714844 15 15zm0 0" fill="#0051bd" fill-rule="evenodd"></path><path d="m351.332031 360.433594c0 8.285156-6.714843 15-15 15-8.285156 0-15-6.714844-15-15s6.714844-15 15-15c8.285157 0 15 6.714844 15 15zm0 0" fill="#515cdf" fill-rule="evenodd"></path><path d="m428.667969 417.632812c4.96875-6.628906 3.625-16.03125-3.003907-21-6.628906-4.972656-16.027343-3.625-21 3.003907-8.492187 11.332031-22.027343 18.097656-36.195312 18.097656v30c23.5625 0 46.070312-11.253906 60.199219-30.101563zm0 0" fill="#0051bd"></path></svg> 